<?xml version="1.0" ?><svg height="32px" version="1.1" viewBox="0 0 32 32" width="32px" xmlns="http://www.w3.org/2000/svg" xmlns:sketch="http://www.bohemiancoding.com/sketch/ns" xmlns:xlink="http://www.w3.org/1999/xlink"><title/><desc/><defs/><g fill="none" fill-rule="evenodd" id="Page-1" stroke="none" stroke-width="1"><g fill="#929292" id="icon-62-compass"><path d="M16,29 C23.1797021,29 29,23.1797021 29,16 C29,8.8202979 23.1797021,3 16,3 C8.8202979,3 3,8.8202979 3,16 C3,23.1797021 8.8202979,29 16,29 L16,29 Z M16,28 C22.6274173,28 28,22.6274173 28,16 C28,9.37258267 22.6274173,4 16,4 C9.37258267,4 4,9.37258267 4,16 C4,22.6274173 9.37258267,28 16,28 L16,28 Z M18.1213203,18.1213203 C16.3535535,19.8890874 8.92893219,23.0710678 8.92893219,23.0710678 C8.92893219,23.0710678 12.1109127,15.6464466 13.8786797,13.8786797 C15.6464466,12.1109127 23.0710678,8.92893219 23.0710678,8.92893219 C23.0710678,8.92893219 19.8890872,16.3535533 18.1213203,18.1213203 L18.1213203,18.1213203 Z M14.5857864,17.4142136 C15.3668351,18.1952622 16.6331649,18.1952622 17.4142136,17.4142136 C18.1952622,16.6331649 18.1952622,15.3668351 17.4142136,14.5857864 C16.6331649,13.8047378 15.3668351,13.8047378 14.5857864,14.5857864 C13.8047378,15.3668351 13.8047378,16.6331649 14.5857864,17.4142136 L14.5857864,17.4142136 Z" id="compass"/></g></g></svg>